# xmcd
#
# Track frame offsets: 
#        150
#        12468
#        21807
#        33451
#        43830
#        60621
#        77194
#        88759
#        100474
#        114581
#        127557
#        138083
#        151934
#        163027
#        178329
#        190661
#        207435
#        217848
#        234344
#        244532
#        259192
#        276014
#        292053
#
# Disc length: 4080 seconds
#
# Revision: 0
# Processed by: cddbd v1.5.2PL0 Copyright (c) Steve Scherf et al.
# Submitted via: ExactAudioCopy v0.95b3
#
DISCID=400fee17
DTITLE=Elvis Presley  - Raised On Rock [CD1]  FLAC
DYEAR=1900
DGENRE=
TTITLE0=Raised On Rock
TTITLE1=Are You Sincere
TTITLE2=Find Out What's Happening
TTITLE3=I Miss You
TTITLE4=Girl Of Mine
TTITLE5=For Ol' Times Sake
TTITLE6=If You Don't Come Back
TTITLE7=Just A Little Bit
TTITLE8=Sweet Angeline
TTITLE9=Three Corn Patches
TTITLE10=I Miss You (Takes 10, 11 composite)
TTITLE11=Find Out What's Happening (Take 6)
TTITLE12=It's Diff'rent Now (Rehearsal)
TTITLE13=Three Corn Patches (Takes 1, 2)
TTITLE14=If You Don't Come Back (Take 5)
TTITLE15=Girl Of Mine (Take 9)
TTITLE16=I Miss You (Take 5)
TTITLE17=Three Corn Patches (Takes13, 14)
TTITLE18=Are You Sincere (Take 2)
TTITLE19=Find Out What's Happening (Takes 8, 7 Composite)
TTITLE20=For Ol' Times Sake
TTITLE21=Color My Rainbow (Instrumental)
TTITLE22=Sweet Angeline (Instrumental)
EXTD=
EXTT0=
EXTT1=
EXTT2=
EXTT3=
EXTT4=
EXTT5=
EXTT6=
EXTT7=
EXTT8=
EXTT9=
EXTT10=
EXTT11=
EXTT12=
EXTT13=
EXTT14=
EXTT15=
EXTT16=
EXTT17=
EXTT18=
EXTT19=
EXTT20=
EXTT21=
EXTT22=
PLAYORDER=
